<svg width="24" height="24" viewBox="0 0 24 24" fill="none" xmlns="http://www.w3.org/2000/svg">
    <g clip-path="url(#clip0_123_2)">
        <path fill-rule="evenodd" clip-rule="evenodd"
            d="M17.9375 8.15786C18.3144 6.87451 19.501 5.9375 20.9063 5.9375C22.6148 5.9375 24 7.32262 24 9.03125C24 10.7399 22.6148 12.125 20.9063 12.125C19.501 12.125 18.3144 11.188 17.9375 9.90464C17.6419 10.911 16.8485 11.7044 15.8422 12C17.1254 12.3769 18.0625 13.5635 18.0625 14.9688C18.0625 16.6774 16.6774 18.0625 14.9688 18.0625C13.5635 18.0625 12.3769 17.1254 12 15.8422C11.7044 16.8485 10.911 17.6419 9.90464 17.9375C11.188 18.3144 12.125 19.501 12.125 20.9063C12.125 22.6148 10.7399 24 9.03125 24C7.32262 24 5.9375 22.6148 5.9375 20.9063C5.9375 19.501 6.87451 18.3144 8.15786 17.9375C7.15148 17.6419 6.35809 16.8485 6.0625 15.8422C5.68555 17.1254 4.49908 18.0625 3.09374 18.0625C1.38512 18.0625 0 16.6774 0 14.9688C0 13.5635 0.937013 12.3769 2.22036 12C0.937013 11.6231 0 10.4366 0 9.03125C0 7.62593 0.937013 6.43944 2.22036 6.0625C0.937013 5.68555 0 4.49908 0 3.09374C0 1.38512 1.38512 0 3.09374 0C4.49908 0 5.68555 0.937013 6.0625 2.22036C6.43944 0.937013 7.62593 0 9.03125 0C10.4366 0 11.6231 0.937013 12 2.22036C12.3769 0.937013 13.5635 0 14.9688 0C16.6774 0 18.0625 1.38512 18.0625 3.09374C18.0625 4.49908 17.1254 5.68555 15.8422 6.0625C16.8485 6.35809 17.6419 7.15148 17.9375 8.15786ZM14.0953 12C12.812 11.6231 11.875 10.4366 11.875 9.03125C11.875 7.62593 12.812 6.43944 14.0953 6.0625C13.089 5.76691 12.2956 4.97351 12 3.96714C11.6231 5.25049 10.4366 6.1875 9.03125 6.1875C7.62593 6.1875 6.43944 5.25049 6.0625 3.96714C5.76691 4.97351 4.97351 5.76691 3.96714 6.0625C5.25049 6.43944 6.1875 7.62593 6.1875 9.03125C6.1875 10.4366 5.25049 11.6231 3.96714 12C4.97351 12.2956 5.76691 13.089 6.0625 14.0953C6.43944 12.812 7.62593 11.875 9.03125 11.875C10.4366 11.875 11.6231 12.812 12 14.0953C12.2956 13.089 13.089 12.2956 14.0953 12ZM24 20.9063C24 22.6148 22.6148 24 20.9063 24C19.1976 24 17.8126 22.6148 17.8126 20.9063C17.8126 19.1976 19.1976 17.8126 20.9063 17.8126C22.6148 17.8126 24 19.1976 24 20.9063Z" />
    </g>
</svg>
