<svg version="1.0" xmlns="http://www.w3.org/2000/svg" width="200.000000pt" height="200.000000pt"
    viewBox="0 0 200.000000 200.000000" preserveAspectRatio="xMidYMid meet">
    <g transform="translate(0.000000,200.000000) scale(0.100000,-0.100000)" fill="#000000" stroke="none">
        <path
            d="M407 1988 c-147 -12 -206 -35 -283 -112 -83 -83 -100 -131 -115 -325 -14 -187 -6 -1136 11 -1226 16 -88 53 -157 115 -214 75 -68 132 -87 295 -100 176 -14 970 -14 1141 0 175 15 225 33 305 113 81 81 99 130 113 312 14 178 14 960 1 1130 -16 186 -39 246 -131 328 -70 63 -130 83 -289 95 -157 13 -1006 12 -1163 -1z m1283 -1243 c36 -19 45 -59 36 -156 -20 -216 -151 -329 -381 -329 -100 1 -155 13 -178 41 -22 28 -22 71 2 100 18 23 25 24 143 24 105 0 129 3 163 21 57 30 85 85 92 181 5 67 10 81 34 105 31 32 48 34 89 13z" />
    </g>
</svg>
